<svg width="209" height="70" viewBox="0 0 209 70" fill="none" xmlns="http://www.w3.org/2000/svg">
<path d="M44.6289 62.3712V62.133C44.7083 61.9345 44.7679 61.6367 44.8076 61.2397C44.8473 60.8426 44.8672 60.4853 44.8672 60.1677C44.8672 58.9369 44.6885 57.5672 44.3312 56.0585C43.9739 54.5896 43.3386 52.7434 42.4255 50.5201L28.1923 16.6343L13.7804 50.0437C13.1848 51.5126 12.5496 53.1206 11.8747 54.8675C11.1997 56.6144 10.8623 58.3811 10.8623 60.1677C10.8623 60.6838 10.902 61.1007 10.9814 61.4183C11.0608 61.7756 11.1402 62.0139 11.2196 62.133V62.3712H0.5V62.133C1.21464 61.3786 2.12779 60.0288 3.23945 58.0833C4.31141 56.1776 5.46277 53.7757 6.69354 50.8774L28.6687 0.554932H32.1823L52.5495 47.9593C53.2642 49.7062 54.0384 51.3737 54.8721 52.9618C55.6661 54.5896 56.4403 56.0387 57.1947 57.3092C57.9093 58.5796 58.5445 59.6317 59.1004 60.4655C59.6562 61.3389 60.0334 61.8948 60.2319 62.133V62.3712H44.6289Z" fill="white"/>
<path d="M60.0811 69.4452H18.613C17.2658 69.4452 16.1737 68.3531 16.1737 67.0059V64.5666C16.1737 63.2195 17.2658 62.1273 18.613 62.1273H60.0811V69.4452Z" fill="white"/>
<path d="M75.8349 4.0918V4.33001C75.7555 4.52852 75.6959 4.82629 75.6562 5.22331C75.6165 5.62033 75.5967 5.97765 75.5967 6.29527C75.5967 7.52603 75.7753 8.89576 76.1326 10.4044C76.49 11.8734 77.1252 13.7196 78.0383 15.9429L92.2716 49.8287L106.683 16.4193C107.279 14.9503 107.914 13.3424 108.589 11.5955C109.264 9.84861 109.602 8.08186 109.602 6.29527C109.602 5.77914 109.562 5.36227 109.482 5.04465C109.403 4.68733 109.324 4.44912 109.244 4.33001V4.0918H119.964V4.33001C119.249 5.08435 118.336 6.43422 117.224 8.37963C116.152 10.2853 115.001 12.6873 113.77 15.5856L91.7951 65.908H88.2815L67.9143 18.5037C67.1997 16.7568 66.4255 15.0893 65.5917 13.5012C64.7977 11.8734 64.0235 10.4243 63.2691 9.15382C62.5545 7.88335 61.9193 6.83125 61.3634 5.9975C60.8076 5.12405 60.4304 4.56822 60.2319 4.33001V4.0918H75.8349Z" fill="white"/>
<path d="M164.093 62.3712V62.133C164.172 61.9345 164.232 61.6367 164.271 61.2397C164.311 60.8426 164.331 60.4853 164.331 60.1677C164.331 58.9369 164.152 57.5672 163.795 56.0585C163.438 54.5896 162.802 52.7434 161.889 50.5201L147.656 16.6343L133.244 50.0437C132.649 51.5126 132.013 53.1206 131.338 54.8675C130.663 56.6144 130.326 58.3811 130.326 60.1677C130.326 60.6838 130.366 61.1007 130.445 61.4183C130.525 61.7756 130.604 62.0139 130.683 62.133V62.3712H119.964V62.133C120.678 61.3786 121.592 60.0288 122.703 58.0833C123.775 56.1776 124.927 53.7757 126.157 50.8774L148.132 0.554932H151.646L172.013 47.9593C172.728 49.7062 173.502 51.3737 174.336 52.9618C175.13 54.5896 175.904 56.0387 176.658 57.3092C177.373 58.5796 178.008 59.6317 178.564 60.4655C179.12 61.3389 179.497 61.8948 179.696 62.133V62.3712H164.093Z" fill="white"/>
<path d="M179.545 69.4452H138.077C136.73 69.4452 135.637 68.3531 135.637 67.0059V64.5666C135.637 63.2195 136.73 62.1273 138.077 62.1273H179.545V69.4452Z" fill="white"/>
</svg>
